<?xml version="1.0" encoding="UTF-8"?>
<svg id="Layer_1" data-name="Layer 1" xmlns="http://www.w3.org/2000/svg" viewBox="0 0 387.64 389.35">
  <path d="m229.56,0c119-.03,195.21,126.64,139.47,231.89-15.92,30.07-39.27,52.56-69.73,67.75-3.54,1.76-6.87,4.08-9.96,6.57-4.32,3.48-6.92,7.85-6.48,13.84.36,4.95-.07,9.96-.08,14.94-.01,5.6-2.59,8.3-8.98,9.26-10.66,1.6-10.97,1.99-13.05,12.77-1.77,9.16-3.84,18.26-5.56,27.42-.63,3.37-2.44,5.62-5.6,4.7-1.59-.46-3.23-3.41-3.49-5.4-1.29-10.07-2.12-20.2-3.13-30.31-.64-6.36-3.67-9.04-10.17-9.03-9.33.02-11.85-2.79-11.32-11.97.19-3.29-.04-6.7-.74-9.92-.99-4.56-3.53-7.45-8.84-7.89-6.61-.55-13.15-1.96-19.7-3.11-6.79-1.19-9.65-.03-13.34,5.91-2.01,3.24-3.59,6.78-5.82,9.85-2.87,3.94-6.57,5.07-11.38,2.76-8.89-4.28-9.62-3.86-15.55,4.12-5.96,8.02-12.06,15.94-18.18,23.84-1.11,1.43-2.44,2.86-3.97,3.75-1.18.69-3.32,1.22-4.18.61-.96-.67-1.64-2.96-1.24-4.12,1.93-5.64,4.22-11.16,6.49-16.69,2.52-6.15,5.24-12.23,7.69-18.41,1.8-4.54.46-7.92-3.95-10.4-10.34-5.83-10.27-5.93-5.31-16.55,1.2-2.56,2.34-5.16,3.39-7.79,1.79-4.48.86-8.6-2.34-12.02-4.2-4.49-8.53-8.88-13.03-13.08-4.17-3.89-8.13-4.02-13.11-.97-13.75,8.41-13.83,8.5-25.34-2.24-2.77-2.59-5.25-2.97-8.52-1.49-9.26,4.19-18.55,8.31-27.87,12.37-2.12.92-4.37,1.98-6.6,2.07-1.45.06-3.64-1.2-4.22-2.46-.46-.99.6-3.41,1.7-4.3,10.27-8.24,20.72-16.24,31.05-24.4,4.16-3.28,4.31-5.37,1.22-9.61-.98-1.34-2-2.69-2.73-4.17-3.03-6.1-1-10.94,5.13-13.79,4.19-1.94,8.24-4.3,12.03-6.93,2.91-2.02,4.01-5,2.75-8.79-1.2-3.62-1.77-7.45-2.66-11.17-1.49-6.22-3.93-8.44-10.26-8.92-3.15-.24-6.35-.25-9.49.02-4,.35-5.84-1.63-6.58-5.2-.13-.65-.22-1.32-.29-1.98q-1.47-13.94-15.37-15.98c-8.06-1.19-16.12-2.41-24.18-3.64-1.48-.23-3.14-.24-4.35-.97-1.47-.88-2.56-2.41-3.81-3.66,1.36-1.19,2.57-3.14,4.11-3.44,11.77-2.3,23.59-4.34,35.41-6.35,7.23-1.23,7.88-1.86,8.07-9.29q.27-10.67,10.98-10.69,17.22-.03,23.48-16.18C105.89,39.62,163.64.02,229.56,0Zm82.42,44.78c-44.91-35.41-119.5-34.39-163.11,1.56.64.55,1.22,1.12,1.87,1.59,25.45,18.23,50.94,36.39,76.3,54.75,3.09,2.24,5.01,1.17,7.42-.62,14.57-10.82,29.18-21.59,43.78-32.37,11.21-8.28,22.43-16.56,33.73-24.91Zm52.68,156.31c20.03-56.5-4.54-124.33-49.91-154.33-.19.22-.48.42-.57.69-10.01,30.33-19.97,60.67-30.06,90.97-1.09,3.28-.24,5.17,2.55,6.92,3.38,2.12,6.53,4.6,9.78,6.93,22.61,16.18,45.21,32.37,68.2,48.83Zm-133.13,97.55c64.96,1.54,119.26-46.93,131.8-94.62h-5.53c-29.15,0-58.3,0-87.46,0-7.78,0-7.83,0-10.33,7.56-9.14,27.63-18.24,55.27-27.35,82.92-.41,1.23-.68,2.5-1.13,4.15ZM146.33,47.94c-47.42,34.13-67.07,102.01-47.65,153.88.31-.11.67-.16.92-.35,25.08-18.48,50.13-37,75.25-55.42,2.25-1.65,2.11-3.16,1.34-5.5-6.07-18.5-11.99-37.04-17.96-55.57-3.91-12.16-7.82-24.33-11.9-37.04Zm-46.99,156.31c17.61,57.71,77.75,95.86,127.42,93.81-.35-1.3-.63-2.6-1.04-3.85-9.19-28.48-18.49-56.93-27.49-85.47-1.19-3.76-2.88-4.82-6.62-4.8-29.31.13-58.62.07-87.93.08-1.31,0-2.63.13-4.34.23Zm150.28-18.25c3.22-11.7,6.43-23.07,9.39-34.51.35-1.34-.17-3.77-1.16-4.47-9.62-6.84-19.42-13.41-29.35-20.18-9.34,7.13-18.51,14.03-27.52,21.15-.89.7-1.31,2.92-.94,4.12,3.2,10.33,6.57,20.6,10.1,30.82.43,1.24,2.07,2.91,3.17,2.93,11.97.21,23.94.13,36.31.13Zm61.7,1.3c.13-.32.26-.64.39-.96-11.41-8.87-22.81-17.75-34.69-26.99-3.59,8.92-6.9,17.16-10.44,25.95,15.39.69,30.07,1.35,44.74,2Zm-130.58-97.1c-.26.24-.51.49-.77.73,3.97,13.45,7.93,26.9,12.06,40.88,8.13-5.59,15.71-10.82,23.94-16.48-12.15-8.66-23.69-16.89-35.23-25.13Zm12.87,96.5c-3.58-9.85-6.73-18.52-10.11-27.83-11.05,9.39-21.69,18.44-32.74,27.83h42.84Zm51.42-71.87c7.71,5.87,15.07,11.46,22.99,17.5,4.16-14.14,8.15-27.72,12.5-42.5-12.43,8.76-23.79,16.75-35.5,25Zm-15.95,130.58c.33-.06.66-.12,1-.17,4.63-13.42,9.26-26.83,14.19-41.11h-27.22c4,13.72,8.01,27.5,12.03,41.29Zm-163.88-111.03s0-.06,0-.09c.83,0,1.88.33,2.45-.06,1.73-1.18,3.27-2.63,4.88-3.98-1.66-1.3-3.15-3.09-5.03-3.76-1.76-.63-4.13-.56-5.87.12-1.54.6-2.59,2.47-3.86,3.78,1.32,1.27,2.49,2.76,4,3.72.86.54,2.27.21,3.43.27Zm175.46,190.76s.05,0,.07,0c0-.99.37-2.22-.07-2.92-1.09-1.72-2.56-3.2-3.88-4.78-1.16,1.57-2.84,2.98-3.35,4.74-.57,1.97-.54,4.39.08,6.35.5,1.56,2.28,2.7,3.49,4.03,1.22-1.32,2.68-2.5,3.58-4.01.51-.85.09-2.25.09-3.41ZM65.54,168.31c.92,0,1.71.24,2.21-.04,1.79-1.01,3.48-2.2,5.21-3.32-1.61-1.27-3.18-2.6-4.86-3.77-.47-.32-1.29-.19-1.95-.19-3.13-.02-7.7-1.67-8.1,2.97-.45,5.19,4.59,3.78,7.49,4.35Zm197.76,158.4c2.27,2.4,3.87,5.38,5.19,5.26,4.92-.46,3.96-5.12,4.13-8.26.09-1.63-2.11-3.38-3.27-5.08-1.79,2.39-3.58,4.78-6.05,8.07Zm-192.08-96.85c3.41-3.13,6.13-5.63,8.84-8.13-1.26-1.05-2.45-2.87-3.8-3-3.62-.34-9.6,4.04-8.97,6.3.4,1.42,1.97,2.52,3.93,4.83Zm64.71,74.28c3.42.04,8.54-5.92,8.06-8.74-.23-1.36-2.04-2.45-3.14-3.66-2.37,2.93-4.94,5.74-6.94,8.91-.38.6,1.5,2.62,2.03,3.49Zm38.59,5.67c-2.56-1.67-4.89-3.48-5.09-3.28-2.58,2.74-4.95,5.7-7.04,8.83-.16.24,3.08,3.19,3.19,3.1,2.83-2.46,5.45-5.16,8.94-8.65Zm-86.12-51.48c3.58-3.15,6.36-5.59,9.14-8.04-1.18-1.12-2.24-2.98-3.58-3.21-3.19-.55-9.47,3.91-9.03,6.19.27,1.42,1.72,2.61,3.47,5.06Z"/>
</svg>